<svg xmlns="http://www.w3.org/2000/svg" width="400" height="400" fill="none" viewBox="0 0 400 400">
  <circle cx="200" cy="200" r="195" fill="#F7F8FB" stroke="#D8DEE9" stroke-width="10"/>
  <path fill="#434C5E" d="M122.321 82.143a40.178 40.178 0 0 0-40.178 40.178v155.358a40.177 40.177 0 0 0 40.178 40.178h91.147a40.166 40.166 0 0 0 28.414-11.764l64.211-64.211a40.171 40.171 0 0 0 11.764-28.414v-91.147a40.178 40.178 0 0 0-40.178-40.178H122.321ZM98.214 122.32a24.107 24.107 0 0 1 24.107-24.107h155.358a24.107 24.107 0 0 1 24.107 24.107v88.393h-50.893a40.18 40.18 0 0 0-40.179 40.179v50.893h-88.393a24.108 24.108 0 0 1-24.107-24.107V122.321Zm128.572 175.458v-46.886a24.104 24.104 0 0 1 24.107-24.107h46.886a24.11 24.11 0 0 1-3.054 3.728l-64.211 64.211a24.158 24.158 0 0 1-3.728 3.054Z"/>
</svg>
